<svg width="17" height="17" viewBox="0 0 17 17" fill="none" xmlns="http://www.w3.org/2000/svg">
<path d="M8.5 1.5C6.64348 1.5 4.86301 2.2375 3.55025 3.55025C2.2375 4.86301 1.5 6.64348 1.5 8.5C1.5 10.3565 2.2375 12.137 3.55025 13.4497C4.86301 14.7625 6.64348 15.5 8.5 15.5C10.3565 15.5 12.137 14.7625 13.4497 13.4497C14.7625 12.137 15.5 10.3565 15.5 8.5C15.5 6.64348 14.7625 4.86301 13.4497 3.55025C12.137 2.2375 10.3565 1.5 8.5 1.5ZM9.5 13.5H7.5V11.5H9.5V13.5ZM5 6.5C5 5.59826 5.36875 4.73346 6.02513 4.09584C6.6815 3.45821 7.57174 3.1 8.5 3.1C9.42826 3.1 10.3185 3.45821 10.9749 4.09584C11.6313 4.73346 12 5.59826 12 6.5C11.8 9.4 9.5 9 9.5 10.5H7.5C7.6 7.9 9.9 7.7 10 6.5C10 6.1287 9.84196 5.7726 9.56066 5.51005C9.27936 5.2475 8.89782 5.1 8.5 5.1C8.10218 5.1 7.72064 5.2475 7.43934 5.51005C7.15804 5.7726 7 6.1287 7 6.5H5Z" fill="white"/>
</svg>
