<svg width="17" height="16" viewBox="0 0 17 16" fill="none" xmlns="http://www.w3.org/2000/svg">
<path d="M8.5 1C1.5 1 1.5 1 1.5 8C1.5 15 1.5 15 8.5 15C15.5 15 15.5 15 15.5 8C15.5 1 15.5 1 8.5 1ZM4.75 2.25C5.28043 2.25 5.78914 2.46071 6.16421 2.83579C6.53929 3.21086 6.75 3.71957 6.75 4.25C6.75 4.78043 6.53929 5.28914 6.16421 5.66421C5.78914 6.03929 5.28043 6.25 4.75 6.25C4.21957 6.25 3.71086 6.03929 3.33579 5.66421C2.96071 5.28914 2.75 4.78043 2.75 4.25C2.75 3.71957 2.96071 3.21086 3.33579 2.83579C3.71086 2.46071 4.21957 2.25 4.75 2.25ZM8.5 6C9.03043 6 9.53914 6.21071 9.91421 6.58579C10.2893 6.96086 10.5 7.46957 10.5 8C10.5 8.53043 10.2893 9.03914 9.91421 9.41421C9.53914 9.78929 9.03043 10 8.5 10C7.96957 10 7.46086 9.78929 7.08579 9.41421C6.71071 9.03914 6.5 8.53043 6.5 8C6.5 7.46957 6.71071 6.96086 7.08579 6.58579C7.46086 6.21071 7.96957 6 8.5 6ZM12.25 9.75C12.7804 9.75 13.2891 9.96071 13.6642 10.3358C14.0393 10.7109 14.25 11.2196 14.25 11.75C14.25 12.2804 14.0393 12.7891 13.6642 13.1642C13.2891 13.5393 12.7804 13.75 12.25 13.75C11.7196 13.75 11.2109 13.5393 10.8358 13.1642C10.4607 12.7891 10.25 12.2804 10.25 11.75C10.25 11.2196 10.4607 10.7109 10.8358 10.3358C11.2109 9.96071 11.7196 9.75 12.25 9.75Z" fill="white"/>
</svg>
